<svg xmlns="http://www.w3.org/2000/svg" height="960" width="960"><rect id="backgroundrect" width="100%" height="100%" x="0" y="0" fill="none" stroke="none"/><g class="currentLayer" style=""><title>Layer 1</title><path d="m476.2274940573437,894.0909119126022 l-58.53339010861612,-52.261955454121534 q-111.84058467182008,-103.47867179916064 -185.52994186213144,-178.21326809855444 T114.57476231482268,528.2572237337515 q-43.90004258146209,-60.62386832678098 -61.146487881322194,-110.27272600819643 T36.18182913364038,318.16416280818294 q0,-103.47867179916064 69.50840075398165,-174.0323116622247 T277.6320633316819,73.57821128289415 q58.53339010861612,0 109.22748689911401,25.60835817251955 T476.2274940573437,173.92116575480748 q43.90004258146209,-51.2167163450391 92.50366115379512,-75.77983540847623 T674.8229247830055,73.57821128289415 q103.47867179916064,0 173.5096921076835,70.55363986306406 T918.3636371992119,318.16416280818294 q0,50.17147723595667 -17.76906485440132,99.29771536283091 t-61.146487881322194,109.75010645365522 q-43.37742302692087,60.62386832678098 -117.06678021723224,135.881084180716 T535.8061232750422,841.8289564584807 l-59.57862921769855,52.261955454121534 z" id="svg_1" class="selected" fill="#b6b6b6" fill-opacity="1"/></g></svg>